<?xml version="1.0" encoding="UTF-8"?>
<svg xmlns="http://www.w3.org/2000/svg" xmlns:xlink="http://www.w3.org/1999/xlink" width="40px" height="40px" viewBox="0 0 40 40" version="1.1">
<g id="surface1">
<path style=" stroke:none;fill-rule:evenodd;fill:rgb(87.843137%,40.392157%,71.764706%);fill-opacity:1;" d="M 23.671875 0.597656 C 23.148438 0.648438 22.246094 0.859375 21.746094 1.046875 C 21.550781 1.121094 21.375 1.167969 21.359375 1.152344 C 21.339844 1.132812 21.324219 1.148438 21.324219 1.183594 C 21.324219 1.214844 21.292969 1.246094 21.253906 1.246094 C 21.210938 1.246094 21.066406 1.304688 20.925781 1.378906 C 20.785156 1.453125 20.636719 1.515625 20.597656 1.515625 C 20.554688 1.515625 20.515625 1.535156 20.503906 1.558594 C 20.496094 1.582031 20.300781 1.714844 20.070312 1.859375 C 19.648438 2.117188 19.191406 2.4375 18.945312 2.648438 C 18.871094 2.714844 18.699219 2.855469 18.566406 2.964844 C 18.257812 3.21875 17.632812 3.847656 17.347656 4.1875 C 17.230469 4.332031 17.105469 4.476562 17.078125 4.511719 C 16.667969 4.980469 15.875 6.113281 15.792969 6.34375 C 15.785156 6.367188 15.511719 6.339844 15.183594 6.28125 C 13.988281 6.074219 13.46875 6.035156 11.988281 6.035156 C 10.136719 6.039062 9.113281 6.179688 7.6875 6.632812 C 7.433594 6.714844 7.214844 6.78125 7.199219 6.78125 C 7.183594 6.785156 7.113281 6.816406 7.039062 6.855469 C 6.96875 6.890625 6.890625 6.910156 6.863281 6.894531 C 6.839844 6.878906 6.820312 6.886719 6.820312 6.914062 C 6.820312 6.960938 6.445312 7.121094 6.375 7.101562 C 6.351562 7.09375 6.332031 7.113281 6.332031 7.144531 C 6.332031 7.175781 6.296875 7.199219 6.253906 7.199219 C 6.132812 7.199219 4.835938 7.953125 4.761719 8.0625 C 4.75 8.085938 4.652344 8.164062 4.546875 8.234375 C 4.246094 8.445312 4.074219 8.597656 3.523438 9.15625 C 3.042969 9.640625 2.910156 9.785156 2.664062 10.105469 C 2.613281 10.167969 2.527344 10.273438 2.46875 10.339844 C 2.414062 10.40625 2.25 10.648438 2.105469 10.875 C 1.960938 11.101562 1.820312 11.3125 1.792969 11.34375 C 1.769531 11.375 1.667969 11.546875 1.570312 11.722656 C 1.472656 11.898438 1.363281 12.0625 1.332031 12.082031 C 1.296875 12.105469 1.289062 12.125 1.3125 12.125 C 1.335938 12.125 1.261719 12.3125 1.144531 12.542969 C 0.753906 13.328125 0.433594 14.292969 0.433594 14.683594 C 0.433594 14.828125 0.652344 15.09375 0.746094 15.0625 C 0.78125 15.046875 0.8125 15.066406 0.8125 15.101562 C 0.8125 15.132812 0.839844 15.144531 0.871094 15.125 C 0.90625 15.105469 0.949219 15.113281 0.96875 15.148438 C 0.988281 15.179688 1.054688 15.214844 1.113281 15.222656 C 1.175781 15.234375 1.3125 15.292969 1.425781 15.359375 C 1.539062 15.425781 1.683594 15.480469 1.75 15.480469 C 1.925781 15.484375 2.035156 15.589844 2.21875 15.9375 C 2.496094 16.464844 2.414062 16.820312 2.019531 16.789062 C 1.761719 16.765625 1.242188 16.625 1.144531 16.546875 C 1.078125 16.492188 0.867188 16.449219 0.867188 16.492188 C 0.867188 16.566406 1.21875 16.972656 1.332031 17.03125 C 1.511719 17.121094 1.5625 17.085938 1.445312 16.953125 C 1.359375 16.859375 1.371094 16.859375 1.757812 16.933594 C 2.132812 17.007812 2.167969 17.003906 2.335938 16.90625 C 2.714844 16.683594 2.648438 16.023438 2.199219 15.550781 C 2.007812 15.347656 1.878906 15.277344 1.324219 15.078125 L 0.675781 14.839844 L 0.683594 14.496094 C 0.695312 13.660156 1.664062 11.683594 2.726562 10.324219 C 4.183594 8.457031 5.855469 7.339844 8.199219 6.664062 C 9.929688 6.167969 12.507812 6.058594 14.683594 6.394531 C 15.828125 6.570312 15.890625 6.574219 15.929688 6.472656 C 15.949219 6.425781 16.144531 6.113281 16.367188 5.777344 C 17.828125 3.578125 19.863281 1.886719 21.90625 1.171875 C 22.855469 0.839844 23.214844 0.789062 24.492188 0.789062 C 25.984375 0.789062 26.636719 0.902344 27.765625 1.367188 C 29.253906 1.972656 30.222656 3.046875 30.585938 4.492188 C 30.828125 5.460938 30.78125 7.058594 30.472656 8.28125 C 30.023438 10.035156 29.332031 11.40625 28.144531 12.878906 C 27.246094 13.996094 26.777344 14.78125 26.316406 15.941406 C 25.671875 17.558594 25.613281 18.5 26.0625 19.839844 C 26.476562 21.074219 27.199219 21.984375 28.113281 22.425781 C 28.628906 22.675781 28.988281 22.753906 29.632812 22.75 C 30.933594 22.746094 32.082031 22.113281 32.558594 21.144531 C 33.03125 20.175781 33.019531 19.34375 32.527344 18.808594 C 32.238281 18.5 31.859375 18.34375 31.3125 18.308594 C 30.300781 18.246094 29.523438 18.636719 28.960938 19.5 L 28.75 19.824219 L 28.6875 19.597656 C 28.335938 18.289062 28.664062 16.78125 29.53125 15.726562 C 30.351562 14.734375 31.816406 14.152344 33.035156 14.339844 C 34.703125 14.59375 35.878906 15.808594 36.4375 17.863281 C 36.542969 18.253906 36.5625 18.449219 36.5625 19.214844 C 36.5625 20.183594 36.527344 20.394531 36.210938 21.207031 C 35.652344 22.652344 34.015625 24.246094 32.472656 24.84375 C 31.429688 25.246094 30.449219 25.386719 29.425781 25.285156 C 27.511719 25.097656 25.898438 24.351562 24.59375 23.054688 C 23.980469 22.441406 23.601562 21.925781 23.164062 21.09375 C 22.515625 19.855469 22.246094 18.75 22.246094 17.324219 C 22.246094 16.421875 22.320312 15.828125 22.539062 14.984375 C 22.8125 13.933594 23.378906 12.710938 23.980469 11.882812 C 24.527344 11.121094 24.78125 10.5 24.898438 9.652344 C 25.015625 8.8125 24.808594 7.648438 24.433594 7.003906 C 24.210938 6.628906 23.761719 6.253906 23.375 6.121094 C 22.585938 5.855469 21.390625 6.039062 20.445312 6.570312 C 19.726562 6.96875 18.847656 7.679688 18.464844 8.164062 L 18.300781 8.371094 L 18.628906 8.71875 C 19.035156 9.144531 19.523438 9.875 19.8125 10.484375 C 20.742188 12.445312 20.695312 15.183594 19.683594 17.796875 C 19.433594 18.4375 18.964844 19.378906 18.640625 19.882812 C 18.199219 20.566406 17.816406 21.003906 16.667969 22.136719 C 15.296875 23.492188 15 23.910156 14.421875 25.304688 C 13.90625 26.554688 13.730469 27.34375 13.730469 28.390625 C 13.734375 29.695312 14.03125 30.625 14.820312 31.828125 C 15.246094 32.472656 16.222656 33.433594 16.941406 33.910156 C 17.253906 34.117188 17.523438 34.296875 17.539062 34.308594 C 17.585938 34.347656 16.648438 35.183594 16.183594 35.515625 C 15.238281 36.195312 13.730469 36.777344 12.277344 37.023438 C 11.503906 37.152344 10.921875 37.234375 10.257812 37.300781 C 9.382812 37.386719 6.847656 37.390625 6.007812 37.300781 C 4.925781 37.191406 4 37.0625 4.015625 37.023438 C 4.027344 37.003906 4.214844 36.832031 4.4375 36.640625 C 5.0625 36.105469 6.703125 34.457031 7.160156 33.898438 C 8.089844 32.769531 8.910156 31.316406 9.25 30.203125 C 9.539062 29.253906 9.652344 28.574219 9.746094 27.1875 C 9.835938 25.835938 9.734375 25.367188 9.261719 24.9375 C 8.921875 24.632812 8.585938 24.558594 7.664062 24.585938 C 6.933594 24.609375 6.871094 24.621094 6.171875 24.855469 C 5.257812 25.164062 4.800781 25.246094 3.976562 25.246094 C 3.394531 25.25 3.304688 25.238281 3.085938 25.121094 C 2.5625 24.84375 2.410156 24.527344 2.410156 23.75 C 2.410156 23.429688 2.394531 23.167969 2.382812 23.171875 C 2.367188 23.171875 2.304688 23.195312 2.246094 23.21875 L 2.136719 23.265625 L 2.246094 23.273438 C 2.335938 23.277344 2.339844 23.285156 2.273438 23.328125 C 2.230469 23.359375 2.21875 23.382812 2.253906 23.382812 C 2.296875 23.382812 2.308594 23.585938 2.296875 24.074219 C 2.289062 24.453125 2.292969 24.730469 2.308594 24.691406 C 2.328125 24.652344 2.402344 24.726562 2.5 24.882812 C 2.59375 25.023438 2.679688 25.152344 2.699219 25.167969 C 2.71875 25.183594 2.820312 25.304688 2.921875 25.441406 C 3.238281 25.855469 3.484375 26.085938 3.679688 26.15625 C 3.992188 26.265625 5.417969 26.246094 5.847656 26.125 C 6.484375 25.945312 6.734375 25.878906 7.117188 25.792969 C 7.324219 25.746094 7.582031 25.683594 7.6875 25.65625 C 7.792969 25.628906 8.152344 25.601562 8.488281 25.597656 C 9.019531 25.59375 9.109375 25.605469 9.191406 25.691406 C 9.242188 25.75 9.335938 25.785156 9.398438 25.777344 C 9.503906 25.761719 9.523438 25.789062 9.554688 26.066406 C 9.660156 26.894531 9.441406 28.90625 9.128906 30.011719 C 9.121094 30.042969 9.070312 30.160156 9.023438 30.273438 C 8.972656 30.390625 8.90625 30.578125 8.875 30.691406 C 8.84375 30.808594 8.796875 30.917969 8.765625 30.933594 C 8.738281 30.953125 8.726562 30.992188 8.742188 31.019531 C 8.761719 31.046875 8.746094 31.070312 8.714844 31.070312 C 8.679688 31.070312 8.667969 31.09375 8.6875 31.125 C 8.707031 31.152344 8.691406 31.175781 8.65625 31.175781 C 8.617188 31.175781 8.605469 31.191406 8.621094 31.210938 C 8.714844 31.304688 7.867188 32.691406 7.152344 33.613281 C 6.605469 34.320312 4.496094 36.40625 3.75 36.980469 L 3.558594 37.128906 L 3.6875 37.179688 C 3.785156 37.214844 3.839844 37.300781 3.894531 37.503906 C 3.972656 37.78125 4.035156 37.847656 4.09375 37.703125 C 4.117188 37.636719 4.148438 37.640625 4.292969 37.722656 C 4.386719 37.773438 4.503906 37.820312 4.546875 37.824219 C 4.589844 37.828125 4.738281 37.851562 4.871094 37.882812 C 5.496094 38.011719 6.699219 38.105469 8.199219 38.140625 C 9.550781 38.171875 10.375 38.132812 11.339844 37.996094 C 11.546875 37.96875 12 37.90625 12.339844 37.859375 C 12.683594 37.816406 13.160156 37.730469 13.394531 37.667969 C 13.632812 37.609375 13.976562 37.523438 14.152344 37.480469 C 14.5625 37.375 14.84375 37.285156 14.910156 37.226562 C 14.9375 37.203125 14.992188 37.183594 15.035156 37.183594 C 15.132812 37.183594 16.222656 36.660156 16.425781 36.515625 C 16.515625 36.453125 16.628906 36.375 16.675781 36.347656 C 16.878906 36.222656 17.089844 36.070312 17.269531 35.914062 C 17.910156 35.371094 18.078125 35.210938 18.105469 35.125 C 18.125 35.066406 18.070312 34.902344 17.972656 34.722656 C 17.878906 34.558594 17.8125 34.390625 17.820312 34.347656 C 17.832031 34.285156 17.433594 33.9375 17.347656 33.9375 C 17.292969 33.9375 16.964844 33.578125 16.890625 33.4375 C 16.851562 33.355469 16.777344 33.246094 16.730469 33.195312 C 16.679688 33.140625 16.496094 32.890625 16.320312 32.640625 C 16.144531 32.386719 15.980469 32.171875 15.957031 32.160156 C 15.933594 32.152344 15.914062 32.113281 15.914062 32.074219 C 15.914062 32.035156 15.863281 31.960938 15.804688 31.90625 C 15.746094 31.855469 15.695312 31.78125 15.695312 31.746094 C 15.695312 31.707031 15.632812 31.585938 15.558594 31.472656 C 15.480469 31.363281 15.324219 30.949219 15.203125 30.558594 C 14.964844 29.761719 14.902344 29.132812 14.988281 28.28125 C 15.03125 27.804688 15.324219 26.398438 15.417969 26.210938 C 15.511719 26.023438 15.640625 25.734375 15.722656 25.523438 C 15.769531 25.40625 15.828125 25.296875 15.851562 25.277344 C 15.875 25.261719 15.972656 25.113281 16.066406 24.945312 C 16.160156 24.777344 16.277344 24.609375 16.324219 24.570312 C 16.371094 24.53125 16.441406 24.433594 16.488281 24.347656 C 16.554688 24.214844 16.757812 23.96875 17.0625 23.644531 C 17.117188 23.589844 17.160156 23.519531 17.160156 23.492188 C 17.160156 23.460938 17.183594 23.4375 17.210938 23.4375 C 17.238281 23.4375 17.292969 23.378906 17.332031 23.308594 C 17.371094 23.238281 17.46875 23.097656 17.550781 22.996094 C 17.773438 22.722656 18.0625 22.300781 18.195312 22.058594 C 18.257812 21.9375 18.375 21.742188 18.457031 21.625 C 18.601562 21.40625 19.226562 20.1875 19.191406 20.1875 C 19.179688 20.1875 19.253906 20.027344 19.355469 19.832031 C 19.457031 19.632812 19.527344 19.453125 19.507812 19.425781 C 19.492188 19.398438 19.503906 19.378906 19.53125 19.378906 C 19.5625 19.378906 19.601562 19.324219 19.621094 19.253906 C 19.640625 19.1875 19.714844 18.976562 19.78125 18.78125 C 19.851562 18.589844 19.945312 18.285156 19.996094 18.105469 C 20.046875 17.925781 20.132812 17.621094 20.1875 17.429688 C 20.238281 17.234375 20.335938 16.722656 20.402344 16.292969 C 20.464844 15.859375 20.546875 15.335938 20.582031 15.128906 C 20.667969 14.632812 20.664062 12.988281 20.570312 12.367188 C 20.496094 11.851562 20.238281 10.859375 20.105469 10.574219 C 20.042969 10.433594 20.039062 10.371094 20.089844 10.25 L 20.152344 10.09375 L 20.1875 10.285156 C 20.207031 10.40625 20.234375 10.449219 20.261719 10.40625 C 20.285156 10.367188 20.289062 10.316406 20.273438 10.285156 C 20.191406 10.15625 20.65625 9.734375 20.90625 9.710938 C 20.957031 9.707031 21.039062 9.671875 21.085938 9.632812 C 21.175781 9.558594 21.25 9.546875 21.988281 9.492188 C 22.460938 9.457031 22.726562 9.511719 23.273438 9.753906 C 23.414062 9.820312 23.871094 10.269531 23.871094 10.34375 C 23.871094 10.371094 23.902344 10.375 23.941406 10.363281 C 24.011719 10.335938 24.140625 10.542969 24.140625 10.6875 C 24.140625 10.726562 24.191406 10.773438 24.25 10.789062 C 24.347656 10.8125 24.351562 10.832031 24.292969 10.96875 C 24.253906 11.054688 24.105469 11.304688 23.957031 11.527344 C 23.632812 12.023438 23.113281 12.882812 23.113281 12.925781 C 23.113281 12.945312 23.027344 13.132812 22.925781 13.34375 C 22.644531 13.914062 22.320312 14.933594 22.183594 15.667969 C 22.011719 16.597656 22.007812 18.070312 22.179688 18.902344 C 22.246094 19.222656 22.324219 19.546875 22.355469 19.625 C 22.390625 19.71875 22.390625 19.796875 22.351562 19.867188 C 22.3125 19.941406 22.3125 20.003906 22.351562 20.070312 C 22.382812 20.121094 22.40625 20.132812 22.40625 20.09375 C 22.40625 20.058594 22.425781 20.027344 22.449219 20.027344 C 22.507812 20.027344 22.707031 20.5625 22.890625 21.21875 C 22.980469 21.53125 23.101562 21.90625 23.167969 22.058594 C 23.230469 22.207031 23.285156 22.371094 23.289062 22.421875 C 23.292969 22.472656 23.316406 22.515625 23.339844 22.515625 C 23.363281 22.515625 23.378906 22.535156 23.371094 22.558594 C 23.355469 22.597656 23.867188 23.65625 23.925781 23.707031 C 23.96875 23.746094 24.574219 24.621094 24.574219 24.648438 C 24.574219 24.710938 25.667969 25.804688 26 26.070312 C 26.214844 26.242188 26.414062 26.414062 26.445312 26.449219 C 26.480469 26.488281 26.523438 26.503906 26.542969 26.484375 C 26.5625 26.464844 26.578125 26.480469 26.578125 26.511719 C 26.578125 26.546875 26.613281 26.578125 26.65625 26.578125 C 26.703125 26.578125 26.738281 26.601562 26.738281 26.628906 C 26.738281 26.660156 26.773438 26.683594 26.820312 26.683594 C 26.863281 26.683594 26.902344 26.714844 26.902344 26.746094 C 26.902344 26.78125 26.917969 26.796875 26.9375 26.777344 C 26.957031 26.757812 27.054688 26.789062 27.152344 26.851562 C 27.503906 27.070312 28.285156 27.429688 28.769531 27.59375 C 29.355469 27.796875 29.882812 27.933594 29.9375 27.898438 C 29.960938 27.886719 29.996094 27.898438 30.011719 27.929688 C 30.03125 27.960938 30.105469 27.96875 30.171875 27.953125 C 30.242188 27.933594 30.316406 27.949219 30.335938 27.984375 C 30.359375 28.019531 30.4375 28.03125 30.527344 28.011719 C 30.613281 27.992188 30.691406 27.996094 30.707031 28.023438 C 30.734375 28.066406 32.453125 28.058594 32.800781 28.011719 C 33.171875 27.960938 33.316406 27.9375 33.34375 27.925781 C 33.355469 27.921875 33.390625 27.921875 33.414062 27.925781 C 33.441406 27.929688 33.496094 27.90625 33.539062 27.871094 C 33.582031 27.835938 33.628906 27.820312 33.644531 27.835938 C 33.730469 27.917969 35.335938 27.222656 35.800781 26.902344 C 35.9375 26.808594 36.046875 26.75 36.046875 26.765625 C 36.046875 26.785156 36.128906 26.722656 36.226562 26.632812 C 36.320312 26.542969 36.429688 26.46875 36.464844 26.46875 C 36.523438 26.46875 37.589844 25.484375 37.75 25.285156 C 37.78125 25.246094 37.875 25.140625 37.957031 25.050781 C 38.039062 24.960938 38.105469 24.878906 38.105469 24.863281 C 38.105469 24.824219 38.398438 24.441406 38.445312 24.421875 C 38.464844 24.410156 38.484375 24.367188 38.484375 24.324219 C 38.484375 24.285156 38.511719 24.25 38.542969 24.25 C 38.574219 24.25 38.585938 24.226562 38.566406 24.195312 C 38.550781 24.167969 38.585938 24.09375 38.644531 24.035156 C 38.707031 23.972656 38.75 23.917969 38.742188 23.910156 C 38.734375 23.902344 38.820312 23.714844 38.929688 23.492188 C 39.5625 22.203125 39.742188 20.808594 39.464844 19.347656 C 39.335938 18.671875 38.839844 17.402344 38.554688 17.019531 C 38.488281 16.925781 38.445312 16.835938 38.464844 16.816406 C 38.488281 16.796875 38.472656 16.78125 38.4375 16.78125 C 38.40625 16.78125 38.375 16.742188 38.375 16.699219 C 38.375 16.65625 38.34375 16.601562 38.308594 16.578125 C 38.269531 16.554688 38.199219 16.476562 38.148438 16.402344 C 38.042969 16.238281 37.335938 15.507812 37.285156 15.507812 C 37.265625 15.507812 37.179688 15.445312 37.09375 15.371094 C 36.808594 15.125 36.003906 14.707031 35.683594 14.636719 C 35.601562 14.621094 35.472656 14.582031 35.398438 14.558594 C 35.230469 14.496094 34.835938 14.449219 34.332031 14.425781 C 34.113281 14.417969 33.90625 14.382812 33.863281 14.351562 C 33.824219 14.316406 33.777344 14.304688 33.757812 14.324219 C 33.738281 14.347656 33.722656 14.335938 33.722656 14.300781 C 33.722656 14.265625 33.6875 14.25 33.644531 14.269531 C 33.605469 14.285156 33.554688 14.269531 33.53125 14.238281 C 33.511719 14.203125 33.449219 14.191406 33.390625 14.210938 C 33.335938 14.226562 33.289062 14.222656 33.289062 14.199219 C 33.289062 14.175781 33.195312 14.152344 33.085938 14.144531 C 32.972656 14.140625 32.800781 14.121094 32.699219 14.097656 C 32.597656 14.078125 32.433594 14.085938 32.320312 14.121094 C 32.214844 14.152344 32.027344 14.1875 31.90625 14.199219 C 31.785156 14.207031 31.65625 14.234375 31.613281 14.261719 C 31.503906 14.328125 31.558594 14.207031 31.847656 13.753906 C 32.210938 13.191406 32.589844 12.472656 32.546875 12.429688 C 32.527344 12.410156 32.542969 12.394531 32.578125 12.394531 C 32.613281 12.394531 32.628906 12.371094 32.613281 12.339844 C 32.59375 12.3125 32.605469 12.285156 32.640625 12.285156 C 32.671875 12.285156 32.683594 12.261719 32.664062 12.234375 C 32.648438 12.203125 32.65625 12.179688 32.691406 12.179688 C 32.722656 12.179688 32.746094 12.121094 32.746094 12.046875 C 32.746094 11.976562 32.765625 11.910156 32.789062 11.898438 C 32.871094 11.863281 33.394531 10.175781 33.527344 9.523438 C 33.699219 8.664062 33.742188 8.246094 33.738281 7.441406 C 33.734375 6.269531 33.535156 5.367188 33.085938 4.4375 C 32.949219 4.15625 32.816406 3.917969 32.789062 3.90625 C 32.765625 3.894531 32.746094 3.855469 32.746094 3.8125 C 32.746094 3.769531 32.722656 3.734375 32.691406 3.734375 C 32.664062 3.734375 32.644531 3.714844 32.652344 3.695312 C 32.660156 3.671875 32.617188 3.601562 32.558594 3.539062 C 32.496094 3.476562 32.386719 3.34375 32.3125 3.242188 C 32.238281 3.144531 32.109375 3 32.023438 2.925781 C 31.9375 2.847656 31.796875 2.71875 31.714844 2.640625 C 31.628906 2.558594 31.546875 2.488281 31.53125 2.488281 C 31.515625 2.488281 31.335938 2.371094 31.136719 2.230469 C 30.597656 1.84375 29.445312 1.304688 29.242188 1.34375 C 29.203125 1.351562 29.175781 1.335938 29.175781 1.308594 C 29.175781 1.28125 29.097656 1.257812 29.003906 1.257812 C 28.910156 1.253906 28.820312 1.230469 28.800781 1.203125 C 28.78125 1.175781 28.6875 1.152344 28.589844 1.148438 C 28.488281 1.144531 28.378906 1.117188 28.339844 1.085938 C 28.300781 1.054688 28.226562 1.042969 28.179688 1.058594 C 28.132812 1.078125 28.09375 1.066406 28.09375 1.035156 C 28.09375 1.003906 28.0625 0.988281 28.023438 1.003906 C 27.9375 1.035156 27.027344 0.902344 26.359375 0.761719 C 25.835938 0.648438 24.796875 0.539062 24.355469 0.550781 C 24.222656 0.554688 23.914062 0.574219 23.671875 0.597656 M 27.902344 1.164062 C 28.023438 1.203125 28.164062 1.238281 28.222656 1.242188 C 28.28125 1.242188 28.308594 1.261719 28.289062 1.28125 C 28.269531 1.300781 28.429688 1.40625 28.644531 1.515625 C 29.003906 1.695312 29.222656 1.828125 29.605469 2.097656 C 29.890625 2.296875 30.390625 2.785156 30.390625 2.863281 C 30.390625 2.886719 30.433594 2.945312 30.488281 2.996094 C 30.863281 3.375 31.347656 4.582031 31.449219 5.394531 C 31.550781 6.203125 31.519531 7.296875 31.382812 7.929688 C 31.238281 8.585938 30.996094 9.511719 30.933594 9.632812 C 30.898438 9.710938 30.785156 10.011719 30.683594 10.3125 C 30.585938 10.609375 30.476562 10.875 30.441406 10.90625 C 30.410156 10.9375 30.339844 11.082031 30.285156 11.230469 C 30.230469 11.378906 30.167969 11.515625 30.144531 11.527344 C 30.105469 11.558594 29.816406 12.050781 29.699219 12.285156 C 29.636719 12.417969 29.59375 12.484375 29.46875 12.628906 C 29.273438 12.855469 29.125 13.089844 29.09375 13.214844 C 29.074219 13.292969 28.964844 13.460938 28.847656 13.59375 C 28.730469 13.722656 28.636719 13.847656 28.636719 13.867188 C 28.632812 13.890625 28.546875 13.984375 28.445312 14.078125 C 28.339844 14.171875 28.242188 14.300781 28.222656 14.363281 C 28.203125 14.425781 28.152344 14.515625 28.113281 14.5625 C 27.980469 14.714844 27.339844 16.023438 27.304688 16.214844 C 27.285156 16.316406 27.25 16.402344 27.226562 16.402344 C 27.203125 16.402344 27.171875 16.480469 27.152344 16.578125 C 27.136719 16.671875 27.09375 16.898438 27.0625 17.078125 C 26.976562 17.53125 26.996094 18.605469 27.09375 18.804688 C 27.136719 18.890625 27.171875 18.984375 27.171875 19.015625 C 27.171875 19.109375 27.464844 19.726562 27.589844 19.898438 C 27.65625 19.988281 27.714844 20.089844 27.714844 20.117188 C 27.714844 20.21875 28.410156 20.835938 28.5625 20.867188 C 28.644531 20.886719 28.757812 20.921875 28.808594 20.949219 C 29.175781 21.148438 29.421875 21.21875 29.742188 21.21875 C 30.113281 21.21875 30.808594 21.035156 31.007812 20.882812 C 31.078125 20.828125 31.167969 20.785156 31.203125 20.785156 C 31.351562 20.785156 31.757812 20.304688 31.953125 19.894531 C 32.253906 19.257812 32.300781 18.726562 32.050781 18.726562 C 32.019531 18.726562 31.957031 18.691406 31.910156 18.644531 C 31.789062 18.519531 31.191406 18.449219 30.773438 18.507812 C 30.265625 18.578125 29.871094 18.78125 29.503906 19.152344 C 29.1875 19.472656 28.886719 19.933594 28.820312 20.203125 C 28.769531 20.414062 28.710938 20.347656 28.585938 19.933594 C 28.339844 19.125 28.300781 18.003906 28.496094 17.296875 C 28.722656 16.472656 29.246094 15.640625 29.863281 15.125 C 30.195312 14.847656 31.097656 14.34375 31.261719 14.34375 C 31.367188 14.34375 31.960938 13.382812 32.367188 12.550781 C 33.515625 10.199219 33.902344 7.582031 33.394531 5.574219 C 33.078125 4.328125 32.355469 3.25 31.3125 2.472656 C 30.882812 2.152344 29.9375 1.660156 29.417969 1.488281 C 29.0625 1.371094 28.175781 1.15625 27.902344 1.117188 L 27.6875 1.089844 L 27.902344 1.164062 M 34.53125 14.550781 C 34.53125 14.578125 34.601562 14.628906 34.683594 14.664062 C 34.84375 14.726562 34.933594 14.777344 35.273438 15.003906 C 35.398438 15.085938 35.507812 15.15625 35.523438 15.15625 C 35.589844 15.15625 36.109375 15.710938 36.328125 16.023438 C 36.597656 16.402344 37.078125 17.347656 37.078125 17.5 C 37.078125 17.550781 37.097656 17.636719 37.125 17.6875 C 37.273438 17.976562 37.296875 18.074219 37.441406 19.023438 C 37.464844 19.167969 37.464844 19.609375 37.441406 19.996094 C 37.402344 20.589844 37.367188 20.792969 37.207031 21.257812 C 36.96875 21.960938 36.855469 22.203125 36.589844 22.570312 C 36.46875 22.734375 36.308594 22.964844 36.230469 23.085938 C 36.074219 23.320312 35.257812 24.128906 34.925781 24.375 C 34.816406 24.457031 34.625 24.597656 34.507812 24.6875 C 34.324219 24.828125 33.871094 25.074219 33.773438 25.085938 C 33.761719 25.089844 33.632812 25.148438 33.488281 25.21875 C 33.242188 25.335938 33.144531 25.367188 32.613281 25.5 C 31.527344 25.769531 30.449219 25.804688 29.527344 25.601562 C 29.378906 25.570312 29.160156 25.519531 29.039062 25.492188 C 28.921875 25.46875 28.75 25.429688 28.660156 25.410156 C 27.445312 25.144531 26.191406 24.59375 25.335938 23.949219 C 24.484375 23.304688 23.695312 22.425781 23.222656 21.582031 C 23.125 21.410156 23.039062 21.273438 23.03125 21.273438 C 22.988281 21.273438 23.359375 22.214844 23.625 22.765625 C 25.140625 25.953125 28.222656 27.929688 31.691406 27.929688 C 33.046875 27.929688 34.117188 27.667969 35.269531 27.0625 C 37.246094 26.023438 38.746094 24.207031 39.28125 22.210938 C 39.410156 21.730469 39.421875 21.582031 39.425781 20.675781 C 39.429688 19.765625 39.417969 19.625 39.285156 19.105469 C 39.042969 18.136719 38.804688 17.582031 38.289062 16.792969 C 37.515625 15.601562 36.363281 14.824219 35.0625 14.617188 C 34.863281 14.585938 34.664062 14.542969 34.617188 14.527344 C 34.570312 14.507812 34.53125 14.519531 34.53125 14.550781 M 1.570312 17.097656 C 1.570312 17.222656 1.945312 17.367188 2.355469 17.398438 C 2.421875 17.402344 2.457031 17.785156 2.402344 17.910156 C 2.375 17.976562 2.351562 17.949219 2.324219 17.808594 L 2.289062 17.617188 L 2.28125 17.84375 C 2.273438 18.027344 2.230469 18.113281 2.058594 18.304688 C 1.941406 18.433594 1.84375 18.558594 1.839844 18.578125 C 1.839844 18.601562 1.804688 18.621094 1.757812 18.621094 C 1.714844 18.621094 1.679688 18.65625 1.679688 18.699219 C 1.679688 18.746094 1.660156 18.78125 1.632812 18.78125 C 1.609375 18.78125 1.367188 18.996094 1.097656 19.253906 C 0.546875 19.785156 0.46875 19.9375 0.640625 20.175781 C 0.699219 20.261719 0.769531 20.402344 0.789062 20.488281 C 0.820312 20.609375 0.835938 20.625 0.863281 20.554688 C 0.886719 20.480469 0.964844 20.527344 1.28125 20.800781 C 1.671875 21.140625 1.765625 21.296875 1.703125 21.5 C 1.671875 21.585938 1.65625 21.59375 1.617188 21.535156 C 1.582031 21.480469 1.570312 21.488281 1.570312 21.574219 C 1.570312 21.632812 1.546875 21.707031 1.523438 21.734375 C 1.496094 21.761719 1.460938 21.867188 1.441406 21.960938 C 1.417969 22.101562 1.433594 22.152344 1.515625 22.207031 C 1.574219 22.242188 1.625 22.304688 1.625 22.339844 C 1.625 22.378906 1.660156 22.410156 1.707031 22.410156 C 1.753906 22.410156 1.777344 22.429688 1.761719 22.457031 C 1.746094 22.484375 1.769531 22.519531 1.8125 22.535156 C 1.898438 22.570312 1.925781 22.710938 1.851562 22.742188 C 1.832031 22.753906 1.828125 22.847656 1.847656 22.949219 C 1.871094 23.097656 1.882812 23.109375 1.886719 23 C 1.894531 22.828125 1.988281 22.734375 2.144531 22.734375 C 2.347656 22.734375 2.335938 22.644531 2.121094 22.550781 C 2.011719 22.5 1.824219 22.378906 1.707031 22.277344 L 1.492188 22.097656 L 1.597656 21.949219 C 1.863281 21.578125 1.894531 21.503906 1.894531 21.269531 C 1.894531 21.023438 1.894531 21.023438 1.324219 20.542969 C 0.957031 20.230469 0.757812 20.023438 0.757812 19.953125 C 0.757812 19.886719 1.070312 19.539062 1.589844 19.03125 C 2.371094 18.265625 2.429688 18.195312 2.488281 17.933594 C 2.523438 17.777344 2.539062 17.578125 2.519531 17.488281 C 2.488281 17.34375 2.453125 17.320312 2.230469 17.289062 C 2.089844 17.269531 1.882812 17.210938 1.773438 17.15625 C 1.660156 17.101562 1.570312 17.078125 1.570312 17.097656 "/>
<path style=" stroke:none;fill-rule:evenodd;fill:rgb(98.823529%,69.803922%,92.156863%);fill-opacity:1;" d="M 23.464844 0.789062 C 20.800781 1.175781 18.214844 2.996094 16.367188 5.777344 C 16.144531 6.113281 15.949219 6.425781 15.929688 6.472656 C 15.890625 6.574219 15.828125 6.570312 14.683594 6.394531 C 12.507812 6.058594 9.929688 6.167969 8.199219 6.664062 C 7.121094 6.972656 5.90625 7.515625 5.179688 8.003906 C 3.59375 9.074219 2.261719 10.65625 1.324219 12.585938 C 0.875 13.515625 0.6875 14.066406 0.683594 14.496094 L 0.675781 14.839844 L 1.324219 15.078125 C 1.878906 15.277344 2.007812 15.347656 2.199219 15.550781 C 2.648438 16.023438 2.714844 16.683594 2.335938 16.90625 C 2.167969 17.003906 2.132812 17.007812 1.757812 16.933594 C 1.378906 16.859375 1.359375 16.859375 1.441406 16.949219 C 1.566406 17.085938 1.9375 17.246094 2.230469 17.289062 C 2.453125 17.320312 2.488281 17.34375 2.519531 17.488281 C 2.539062 17.578125 2.523438 17.777344 2.488281 17.933594 C 2.429688 18.195312 2.371094 18.265625 1.589844 19.03125 C 1.070312 19.539062 0.757812 19.886719 0.757812 19.953125 C 0.757812 20.023438 0.957031 20.230469 1.324219 20.542969 C 1.894531 21.023438 1.894531 21.023438 1.894531 21.269531 C 1.894531 21.503906 1.863281 21.578125 1.597656 21.949219 L 1.492188 22.097656 L 1.707031 22.277344 C 1.824219 22.378906 2.011719 22.5 2.121094 22.550781 C 2.335938 22.644531 2.347656 22.734375 2.144531 22.734375 C 1.980469 22.734375 1.894531 22.832031 1.894531 23.015625 C 1.894531 23.195312 2.066406 23.289062 2.261719 23.214844 C 2.332031 23.1875 2.394531 23.167969 2.398438 23.167969 C 2.402344 23.167969 2.410156 23.429688 2.410156 23.75 C 2.410156 24.527344 2.5625 24.84375 3.085938 25.121094 C 3.304688 25.238281 3.394531 25.25 3.976562 25.246094 C 4.800781 25.246094 5.257812 25.164062 6.171875 24.855469 C 6.871094 24.621094 6.933594 24.609375 7.664062 24.585938 C 8.585938 24.558594 8.921875 24.632812 9.261719 24.9375 C 9.734375 25.367188 9.835938 25.835938 9.746094 27.1875 C 9.652344 28.574219 9.539062 29.253906 9.25 30.203125 C 8.910156 31.316406 8.089844 32.769531 7.160156 33.898438 C 6.703125 34.457031 5.0625 36.105469 4.4375 36.640625 C 4.214844 36.832031 4.027344 37.003906 4.015625 37.023438 C 4 37.0625 4.925781 37.191406 6.007812 37.300781 C 6.847656 37.390625 9.382812 37.386719 10.257812 37.300781 C 12.417969 37.085938 13.859375 36.738281 15.128906 36.132812 C 15.457031 35.976562 15.929688 35.699219 16.183594 35.515625 C 16.648438 35.183594 17.585938 34.347656 17.539062 34.308594 C 17.523438 34.296875 17.253906 34.117188 16.941406 33.910156 C 16.222656 33.433594 15.246094 32.472656 14.820312 31.828125 C 14.03125 30.625 13.734375 29.695312 13.730469 28.390625 C 13.730469 27.34375 13.90625 26.554688 14.421875 25.304688 C 15 23.910156 15.296875 23.492188 16.667969 22.136719 C 18.15625 20.667969 18.5625 20.144531 19.1875 18.898438 C 20.457031 16.367188 20.808594 13.632812 20.160156 11.390625 C 19.898438 10.492188 19.273438 9.398438 18.628906 8.71875 L 18.300781 8.371094 L 18.464844 8.164062 C 18.847656 7.679688 19.726562 6.96875 20.445312 6.570312 C 21.390625 6.039062 22.585938 5.855469 23.375 6.121094 C 23.761719 6.253906 24.210938 6.628906 24.433594 7.003906 C 24.808594 7.648438 25.015625 8.8125 24.898438 9.652344 C 24.78125 10.5 24.527344 11.121094 23.980469 11.882812 C 23.378906 12.710938 22.8125 13.933594 22.539062 14.984375 C 22.320312 15.828125 22.246094 16.421875 22.246094 17.324219 C 22.246094 18.75 22.515625 19.855469 23.164062 21.09375 C 23.601562 21.925781 23.980469 22.441406 24.59375 23.054688 C 25.898438 24.351562 27.511719 25.097656 29.425781 25.285156 C 30.449219 25.386719 31.429688 25.246094 32.472656 24.84375 C 34.015625 24.246094 35.652344 22.652344 36.210938 21.207031 C 36.527344 20.394531 36.5625 20.183594 36.5625 19.214844 C 36.5625 18.449219 36.542969 18.253906 36.4375 17.863281 C 36.167969 16.867188 35.761719 16.089844 35.195312 15.476562 C 34.382812 14.597656 33.234375 14.175781 32.113281 14.34375 C 30.144531 14.636719 28.804688 16.027344 28.578125 18.019531 C 28.523438 18.5 28.570312 19.160156 28.6875 19.597656 L 28.75 19.824219 L 28.960938 19.5 C 29.523438 18.636719 30.300781 18.246094 31.3125 18.308594 C 32.53125 18.382812 33.132812 19.230469 32.828125 20.433594 C 32.464844 21.859375 31.246094 22.746094 29.632812 22.75 C 28.988281 22.753906 28.628906 22.675781 28.113281 22.425781 C 27.199219 21.984375 26.476562 21.074219 26.0625 19.839844 C 25.613281 18.5 25.671875 17.558594 26.316406 15.941406 C 26.777344 14.78125 27.246094 13.996094 28.144531 12.878906 C 28.738281 12.144531 29.136719 11.554688 29.457031 10.933594 C 30.378906 9.152344 30.78125 7.527344 30.730469 5.824219 C 30.695312 4.777344 30.582031 4.257812 30.230469 3.546875 C 29.542969 2.167969 28.230469 1.308594 26.171875 0.890625 C 25.75 0.804688 23.847656 0.734375 23.464844 0.789062 M 30.828125 2.195312 C 30.917969 2.28125 31.058594 2.390625 31.140625 2.433594 C 31.363281 2.550781 32.097656 3.28125 32.101562 3.394531 C 32.105469 3.480469 32.109375 3.480469 32.152344 3.382812 C 32.195312 3.28125 32.199219 3.28125 32.203125 3.402344 C 32.203125 3.472656 32.289062 3.613281 32.394531 3.71875 C 32.5 3.824219 32.585938 3.941406 32.585938 3.984375 C 32.585938 4.027344 32.609375 4.058594 32.636719 4.058594 C 32.664062 4.058594 32.675781 4.105469 32.667969 4.164062 C 32.65625 4.21875 32.679688 4.3125 32.722656 4.367188 C 32.78125 4.445312 32.796875 4.449219 32.800781 4.382812 C 32.800781 4.3125 32.808594 4.3125 32.855469 4.382812 C 32.882812 4.429688 32.90625 4.507812 32.910156 4.5625 C 32.910156 4.617188 32.964844 4.734375 33.03125 4.824219 C 33.125 4.953125 33.136719 4.996094 33.078125 5.03125 C 33.027344 5.0625 33.023438 5.085938 33.066406 5.113281 C 33.097656 5.132812 33.125 5.242188 33.125 5.359375 C 33.125 5.472656 33.148438 5.582031 33.179688 5.601562 C 33.210938 5.621094 33.234375 5.679688 33.234375 5.730469 C 33.234375 5.785156 33.273438 5.90625 33.320312 6 C 33.390625 6.140625 33.410156 6.429688 33.429688 7.480469 C 33.441406 8.230469 33.429688 8.8125 33.398438 8.84375 C 33.371094 8.878906 33.34375 9 33.332031 9.117188 C 33.324219 9.234375 33.289062 9.335938 33.257812 9.347656 C 33.222656 9.359375 33.210938 9.292969 33.222656 9.183594 C 33.234375 9.082031 33.21875 8.980469 33.183594 8.960938 C 33.140625 8.933594 33.125 9.089844 33.136719 9.519531 C 33.144531 9.9375 33.128906 10.140625 33.082031 10.183594 C 33.046875 10.222656 33.019531 10.308594 33.019531 10.375 C 33.019531 10.445312 32.992188 10.5 32.960938 10.5 C 32.929688 10.5 32.917969 10.523438 32.9375 10.554688 C 32.953125 10.585938 32.945312 10.609375 32.914062 10.609375 C 32.886719 10.609375 32.84375 10.695312 32.824219 10.796875 C 32.804688 10.902344 32.765625 10.988281 32.742188 10.988281 C 32.714844 10.988281 32.691406 11.046875 32.691406 11.113281 C 32.691406 11.183594 32.644531 11.285156 32.585938 11.339844 C 32.519531 11.398438 32.488281 11.480469 32.503906 11.550781 C 32.5625 11.828125 32.554688 11.933594 32.484375 11.917969 C 32.4375 11.910156 32.421875 11.933594 32.441406 11.984375 C 32.457031 12.03125 32.449219 12.078125 32.425781 12.097656 C 32.398438 12.113281 32.363281 12.09375 32.351562 12.058594 C 32.335938 12.019531 32.320312 12.082031 32.316406 12.195312 C 32.316406 12.316406 32.292969 12.386719 32.261719 12.367188 C 32.230469 12.347656 32.21875 12.371094 32.238281 12.417969 C 32.257812 12.464844 32.246094 12.503906 32.210938 12.503906 C 32.179688 12.503906 32.152344 12.539062 32.152344 12.585938 C 32.152344 12.628906 32.125 12.664062 32.09375 12.664062 C 32 12.664062 31.910156 12.789062 31.890625 12.9375 C 31.878906 13.03125 31.890625 13.050781 31.925781 13 C 31.953125 12.957031 31.988281 12.945312 32.007812 12.972656 C 32.042969 13.03125 31.972656 13.160156 31.902344 13.164062 C 31.808594 13.171875 31.664062 13.289062 31.664062 13.355469 C 31.664062 13.394531 31.609375 13.476562 31.546875 13.542969 C 31.46875 13.617188 31.449219 13.667969 31.492188 13.683594 C 31.527344 13.695312 31.554688 13.726562 31.554688 13.757812 C 31.554688 13.789062 31.519531 13.800781 31.476562 13.78125 C 31.390625 13.75 31.261719 13.921875 31.324219 13.984375 C 31.34375 14.003906 31.316406 14.019531 31.265625 14.019531 C 31.21875 14.019531 31.175781 14.054688 31.175781 14.097656 C 31.175781 14.140625 31.125 14.226562 31.058594 14.289062 C 30.933594 14.402344 30.980469 14.425781 31.214844 14.363281 C 31.382812 14.320312 31.90625 13.492188 32.367188 12.550781 C 33.679688 9.867188 33.980469 6.871094 33.148438 4.816406 C 32.722656 3.757812 31.867188 2.773438 30.824219 2.136719 L 30.664062 2.035156 L 30.828125 2.195312 M 35.199219 14.742188 C 35.46875 14.855469 35.621094 14.945312 35.722656 15.046875 C 35.738281 15.0625 35.820312 15.109375 35.90625 15.152344 C 36.105469 15.257812 36.894531 16.050781 37.101562 16.355469 C 37.316406 16.675781 37.6875 17.4375 37.835938 17.863281 C 38.25 19.042969 38.328125 20.558594 38.019531 21.394531 C 37.972656 21.519531 37.917969 21.710938 37.894531 21.8125 C 37.871094 21.917969 37.796875 22.113281 37.726562 22.246094 C 37.660156 22.378906 37.53125 22.628906 37.449219 22.800781 C 37.363281 22.972656 37.269531 23.113281 37.238281 23.113281 C 37.210938 23.113281 37.183594 23.136719 37.183594 23.164062 C 37.183594 23.351562 35.804688 24.84375 35.632812 24.84375 C 35.613281 24.84375 35.546875 24.890625 35.484375 24.949219 C 35.339844 25.078125 34.78125 25.386719 34.410156 25.539062 C 33.878906 25.761719 33.722656 25.8125 33.449219 25.867188 C 33.316406 25.890625 33.097656 25.941406 32.964844 25.972656 C 32.121094 26.171875 31.726562 26.210938 30.792969 26.179688 C 30.035156 26.15625 29.789062 26.128906 29.535156 26.039062 C 29.160156 25.910156 28.40625 25.53125 28.175781 25.359375 C 28.085938 25.292969 27.851562 25.1875 27.660156 25.128906 C 27.464844 25.066406 27.257812 25 27.199219 24.980469 C 27.140625 24.957031 27.175781 24.996094 27.28125 25.0625 C 27.382812 25.128906 27.476562 25.203125 27.488281 25.230469 C 27.496094 25.257812 27.542969 25.277344 27.589844 25.277344 C 27.636719 25.277344 27.660156 25.292969 27.640625 25.3125 C 27.566406 25.386719 27.734375 25.492188 27.917969 25.492188 C 28.023438 25.492188 28.09375 25.507812 28.078125 25.527344 C 28.058594 25.546875 28.269531 25.667969 28.542969 25.804688 C 28.816406 25.9375 29.207031 26.128906 29.410156 26.230469 C 29.613281 26.332031 29.832031 26.414062 29.898438 26.414062 C 29.964844 26.414062 30.042969 26.4375 30.070312 26.464844 C 30.203125 26.59375 32.230469 26.664062 32.585938 26.550781 C 32.640625 26.53125 32.890625 26.484375 33.136719 26.441406 C 33.933594 26.308594 34.066406 26.273438 34.355469 26.125 C 34.511719 26.046875 34.6875 25.980469 34.746094 25.980469 C 34.804688 25.980469 34.867188 25.957031 34.886719 25.925781 C 34.929688 25.851562 35.324219 25.601562 35.394531 25.601562 C 35.421875 25.601562 35.527344 25.527344 35.625 25.433594 C 35.722656 25.34375 35.871094 25.242188 35.949219 25.214844 C 36.03125 25.183594 36.132812 25.101562 36.183594 25.03125 C 36.230469 24.957031 36.296875 24.898438 36.335938 24.898438 C 36.402344 24.898438 36.753906 24.609375 36.753906 24.554688 C 36.753906 24.539062 36.8125 24.464844 36.886719 24.390625 C 36.960938 24.316406 37.023438 24.21875 37.023438 24.175781 C 37.023438 24.128906 37.074219 24.078125 37.140625 24.058594 C 37.273438 24.015625 37.507812 23.769531 37.507812 23.667969 C 37.507812 23.628906 37.535156 23.597656 37.5625 23.597656 C 37.59375 23.597656 37.617188 23.539062 37.617188 23.464844 C 37.617188 23.390625 37.636719 23.328125 37.664062 23.328125 C 37.6875 23.328125 37.742188 23.261719 37.785156 23.179688 C 37.828125 23.097656 37.890625 23.007812 37.925781 22.976562 C 38.011719 22.90625 38.320312 22.125 38.320312 21.984375 C 38.320312 21.921875 38.34375 21.859375 38.367188 21.847656 C 38.390625 21.832031 38.453125 21.617188 38.507812 21.367188 C 38.582031 21.015625 38.597656 20.738281 38.578125 20.054688 C 38.554688 19.253906 38.519531 18.964844 38.382812 18.457031 C 38.207031 17.816406 38.074219 17.429688 38.027344 17.425781 C 37.996094 17.425781 37.886719 17.25 37.785156 17.035156 C 37.683594 16.820312 37.574219 16.625 37.539062 16.597656 C 37.5 16.570312 37.507812 16.546875 37.554688 16.527344 C 37.605469 16.503906 37.589844 16.476562 37.507812 16.433594 C 37.4375 16.402344 37.332031 16.277344 37.265625 16.164062 C 37.203125 16.046875 37.101562 15.925781 37.039062 15.894531 C 36.980469 15.859375 36.835938 15.738281 36.71875 15.628906 C 36.386719 15.300781 36.136719 15.101562 36.058594 15.101562 C 36.019531 15.101562 36.003906 15.078125 36.023438 15.046875 C 36.039062 15.019531 36.027344 14.992188 35.992188 14.992188 C 35.894531 14.992188 35.542969 14.816406 35.480469 14.738281 C 35.449219 14.699219 35.304688 14.65625 35.15625 14.636719 L 34.886719 14.605469 L 35.199219 14.742188 M 38.941406 18.273438 C 38.953125 18.390625 38.964844 18.570312 38.96875 18.675781 C 38.976562 18.832031 38.988281 18.84375 39.027344 18.753906 C 39.070312 18.652344 39.074219 18.652344 39.082031 18.769531 C 39.101562 18.964844 39.105469 18.988281 39.144531 19.027344 C 39.164062 19.046875 39.167969 19.09375 39.15625 19.128906 C 39.140625 19.164062 39.167969 19.265625 39.210938 19.355469 C 39.308594 19.535156 39.324219 19.757812 39.242188 19.757812 C 39.210938 19.757812 39.191406 19.8125 39.191406 19.878906 C 39.195312 19.992188 39.199219 19.992188 39.238281 19.894531 C 39.292969 19.75 39.347656 20.226562 39.351562 20.847656 C 39.351562 21.214844 39.332031 21.320312 39.269531 21.347656 C 39.214844 21.367188 39.1875 21.453125 39.1875 21.621094 C 39.1875 21.757812 39.164062 21.867188 39.132812 21.867188 C 39.054688 21.867188 39.066406 22.070312 39.148438 22.097656 C 39.203125 22.117188 39.203125 22.148438 39.148438 22.238281 C 39.109375 22.300781 39.078125 22.421875 39.078125 22.503906 C 39.078125 22.636719 39.070312 22.644531 39.003906 22.558594 C 38.890625 22.410156 38.851562 22.445312 38.886719 22.664062 C 38.914062 22.824219 38.886719 22.933594 38.765625 23.179688 C 38.679688 23.347656 38.589844 23.472656 38.566406 23.449219 C 38.542969 23.425781 38.539062 23.476562 38.558594 23.558594 C 38.582031 23.660156 38.574219 23.707031 38.527344 23.707031 C 38.4375 23.707031 38.320312 23.960938 38.359375 24.0625 C 38.375 24.109375 38.355469 24.140625 38.304688 24.140625 C 38.261719 24.140625 38.210938 24.109375 38.195312 24.074219 C 38.179688 24.035156 38.167969 24.085938 38.164062 24.179688 C 38.15625 24.476562 38.300781 24.390625 38.566406 23.9375 C 38.882812 23.394531 39.109375 22.839844 39.285156 22.195312 C 39.40625 21.738281 39.421875 21.566406 39.425781 20.703125 C 39.433594 19.691406 39.40625 19.507812 39.152344 18.621094 C 39.003906 18.101562 38.914062 17.953125 38.941406 18.273438 "/>
</g>
</svg>
